<?xml version="1.0" encoding="utf-8"?>
<!-- Generator: Adobe Illustrator 16.0.0, SVG Export Plug-In . SVG Version: 6.00 Build 0)  -->
<!DOCTYPE svg PUBLIC "-//W3C//DTD SVG 1.1//EN" "http://www.w3.org/Graphics/SVG/1.1/DTD/svg11.dtd">
<svg version="1.1" id="Layer_1" xmlns="http://www.w3.org/2000/svg" xmlns:xlink="http://www.w3.org/1999/xlink" x="0px" y="0px"
	 width="83.986px" height="98.664px" viewBox="0 0 83.986 98.664" enable-background="new 0 0 83.986 98.664" xml:space="preserve">
<polygon opacity="0.7" points="33.296,28.809 17.806,1.56 21.262,32.712 "/>
<polygon opacity="0.7" points="60.142,32.906 69.869,3.108 72.714,34.323 "/>
<circle opacity="0.7" cx="44.129" cy="58.807" r="39.857"/>
<circle fill="#EDB5D3" cx="41.993" cy="57.384" r="39.857"/>
<circle opacity="0.7" cx="45.402" cy="67.52" r="16.37"/>
<circle fill="#EDB5D3" stroke="#000000" stroke-miterlimit="10" cx="43.772" cy="66.993" r="16.37"/>
<circle stroke="#000000" stroke-miterlimit="10" cx="35.943" cy="69.104" r="3.915"/>
<circle stroke="#000000" stroke-miterlimit="10" cx="51.576" cy="69.104" r="3.89"/>
<ellipse stroke="#000000" stroke-miterlimit="10" cx="55.859" cy="36.21" rx="4.283" ry="6.94"/>
<ellipse stroke="#000000" stroke-miterlimit="10" cx="27.402" cy="36.21" rx="4.283" ry="6.94"/>
<path fill="none" stroke="#000000" stroke-miterlimit="10" d="M16.37,65.189c0,0,0,21.377,19.573,20.666"/>
<polygon fill="#EDB5D3" points="56.191,28.188 68.204,4.232 71.545,30.822 "/>
<polygon fill="#EDB5D3" points="15.54,29.271 17.201,2.521 30.698,25.674 "/>
</svg>
